<?xml version="1.0" encoding="UTF-8"?>
<svg width="943px" height="710px" viewBox="0 0 943 710" version="1.1" xmlns="http://www.w3.org/2000/svg" xmlns:xlink="http://www.w3.org/1999/xlink">
    <!-- Generator: Sketch 48.2 (47327) - http://www.bohemiancoding.com/sketch -->
    <title>Green Choice</title>
    <desc>Created with Sketch.</desc>
    <defs></defs>
    <g id="Page-1" stroke="none" stroke-width="1" fill="none" fill-rule="evenodd">
        <g id="logo-ferdig-01" fill-rule="nonzero">
            <path d="M187.1,654.1 L207,659.1 C202.8,675.4 195.3,687.9 184.5,696.5 C173.7,705.1 160.4,709.4 144.8,709.4 C128.6,709.4 115.4,706.1 105.3,699.5 C95.1,692.9 87.4,683.3 82.1,670.8 C76.8,658.3 74.2,644.9 74.2,630.5 C74.2,614.9 77.2,601.2 83.2,589.5 C89.2,577.8 97.7,569 108.7,562.9 C119.8,556.9 131.9,553.8 145.2,553.8 C160.2,553.8 172.9,557.6 183.1,565.3 C193.3,573 200.5,583.7 204.5,597.6 L184.9,602.2 C181.4,591.3 176.3,583.3 169.7,578.3 C163.1,573.3 154.7,570.8 144.7,570.8 C133.1,570.8 123.5,573.6 115.7,579.1 C107.9,584.6 102.5,592.1 99.3,601.4 C96.2,610.7 94.6,620.4 94.6,630.3 C94.6,643.1 96.5,654.2 100.2,663.8 C103.9,673.3 109.7,680.5 117.6,685.2 C125.5,689.9 134,692.3 143.1,692.3 C154.2,692.3 163.7,689.1 171.4,682.7 C179.1,676.3 184.3,666.7 187.1,654.1" id="Shape" fill="#000000"></path>
            <polygon id="Shape" fill="#000000" points="330.1 556.5 330.1 618.2 252 618.2 252 556.5 232.1 556.5 232.1 706.8 252 706.8 252 635.9 330.1 635.9 330.1 706.8 350 706.8 350 556.5"></polygon>
            <path d="M397.5,633.9 C397.5,652 402.4,666.3 412.1,676.7 C421.8,687.1 434,692.3 448.7,692.3 C463.7,692.3 476,687 485.7,676.5 C495.4,666 500.2,651 500.2,631.7 C500.2,619.5 498.1,608.8 494,599.7 C489.9,590.6 483.8,583.5 475.9,578.5 C467.9,573.5 459,571 449.1,571 C435,571 422.9,575.8 412.7,585.5 C402.6,595.1 397.5,611.3 397.5,633.9 M377,633.6 C377,608.7 383.7,589.1 397.1,575 C410.5,560.9 427.8,553.8 449,553.8 C462.9,553.8 475.4,557.1 486.5,563.7 C497.6,570.3 506.1,579.6 512,591.4 C517.8,603.3 520.8,616.7 520.8,631.7 C520.8,646.9 517.7,660.6 511.6,672.6 C505.5,684.6 496.7,693.7 485.5,699.9 C474.2,706.1 462,709.2 449,709.2 C434.8,709.2 422.2,705.8 411.1,699 C400,692.2 391.5,682.8 385.8,671 C379.9,659.3 377,646.8 377,633.6" id="Shape" fill="#000000"></path>
            <rect id="Rectangle-path" fill="#000000" x="549.8" y="556.5" width="19.9" height="150.3"></rect>
            <path d="M712,654.1 L731.9,659.1 C727.7,675.4 720.2,687.9 709.4,696.5 C698.6,705.1 685.3,709.4 669.7,709.4 C653.5,709.4 640.3,706.1 630.2,699.5 C620,692.9 612.3,683.3 607,670.8 C601.7,658.3 599.1,644.9 599.1,630.5 C599.1,614.9 602.1,601.2 608.1,589.5 C614.1,577.8 622.6,569 633.6,562.9 C644.7,556.9 656.8,553.8 670.1,553.8 C685.1,553.8 697.8,557.6 708,565.3 C718.3,573 725.4,583.7 729.4,597.6 L709.8,602.2 C706.3,591.3 701.2,583.3 694.6,578.3 C688,573.3 679.6,570.8 669.6,570.8 C658,570.8 648.4,573.6 640.6,579.1 C632.8,584.6 627.4,592.1 624.2,601.4 C621.1,610.7 619.5,620.4 619.5,630.3 C619.5,643.1 621.4,654.2 625.1,663.8 C628.8,673.3 634.6,680.5 642.5,685.2 C650.4,689.9 658.9,692.3 668,692.3 C679.1,692.3 688.6,689.1 696.3,682.7 C704,676.3 709.3,666.7 712,654.1" id="Shape" fill="#000000"></path>
            <polygon id="Shape" fill="#000000" points="756.8 556.5 756.8 706.8 869 706.8 869 689 776.7 689 776.7 637.9 847.4 637.9 847.4 620.2 776.7 620.2 776.7 574.2 863 574.2 863 556.5"></polygon>
            <path d="M201.2,487.6 C201.2,487.6 176.4,490.3 162.9,493.3 C149.9,496.2 140.2,498.2 133.7,499.3 C127.2,500.4 119.6,501 110.7,501 C87.3,501 67.3,495.5 50.6,484.6 C33.9,473.6 21.4,459.6 13,442.3 C4.6,425.1 0.5,407.4 0.5,389.2 C0.5,368.4 5.4,349.4 15.3,332.2 C25.2,315 38.6,301.5 55.5,291.7 C72.4,281.9 90.9,276.9 111,276.9 C135.5,276.9 158,282.5 178.1,299.4 C180.5,294.8 182.5,288.6 184,280.6 L201.5,280.6 L201.5,351.4 L186.4,351.4 C184.2,340.7 180,330.8 173.8,321.9 C167.6,313 159.9,305.9 150.8,300.7 C141.6,295.5 131.2,295.8 120.1,295.8 C112,295.8 104.1,297.2 96.3,300 C88.5,302.8 81.3,307.7 74.5,314.7 C67.7,321.7 62.3,331.2 58.2,343.2 C54.1,355.2 52.1,370 52.1,387.7 C52.1,402.8 53.7,417.3 56.9,431.2 C60.1,445.1 66.6,457.1 76.4,467.1 C86.2,477.1 100,482.1 117.9,482.1 C131.9,482.1 142.6,479.9 149.8,475.5 C157,471.1 161.7,465.7 163.9,459.3 C166.1,452.9 167.2,445.8 167.2,437.9 C167.2,430.5 166.6,425 165.5,421.6 C164.4,418.2 161.8,415.7 157.7,414.1 C153.6,412.5 147.3,411.7 138.8,411.7 L138.8,397 L201.3,397 L201.2,487.6 Z" id="Shape" fill="#000000"></path>
            <path d="M366.1,479.1 C356,474.4 306.3,395 298.6,390.4 C310,387.3 319.1,383.1 326.1,377.8 C333.1,372.5 338.1,366.4 341.3,359.6 C344.4,352.8 346,345.8 346,338.5 C346,328.4 343.7,319.5 339.2,311.9 C334.7,304.2 328.8,298.1 321.7,293.4 C314.5,288.7 307,285.4 299,283.4 C293.6,281.9 286.3,281.3 276.9,280.6 C267.5,279.9 199.5,280.5 196.2,280.5 L196.2,298.6 C197.9,298.6 223.4,298.4 225.7,298.4 C242.6,298.4 270.7,298.3 281.1,304 C291.6,309.6 296.8,321.1 296.8,338.3 C296.8,357.4 291.3,369.6 280.5,374.8 C274.1,377.8 246,377.6 246,377.6 C246,377.6 326.5,494.6 328.6,497 L386.5,497 L386.5,482.3 C380.8,481.8 373.9,482.7 366.1,479.1" id="Shape" fill="#000000"></path>
            <path d="M558.2,425.8 L556.4,496.9 L363.7,496.9 L363.7,482.2 C377,482.2 385.6,480.3 389.4,476.5 C393.2,472.7 395.1,466.1 395.1,456.7 L395.1,320.9 C395.1,314.7 394.5,309.9 393.3,306.5 C392.1,303.1 389.2,300.3 384.7,298.4 C380.2,296.4 373.2,295.4 363.7,295.4 L363.7,280.7 L543.1,280.7 L546,336.8 L531.3,336.8 C528,324.4 524.2,315.5 519.9,310.1 C515.6,304.7 510.7,301.4 505.4,300.2 C500,299 492,298.4 481.2,298.4 L440.7,298.4 L440.7,374.8 L462.7,374.8 C470.2,374.8 475.9,374.1 479.6,372.8 C483.3,371.5 485.9,369 487.4,365.2 C488.9,361.5 489.9,355.6 490.4,347.7 L505.7,347.7 L505.7,419.6 L491,419.6 C490.6,411.6 489.5,405.7 487.8,402 C486.1,398.2 483.4,395.7 479.7,394.4 C476,393.1 470.4,392.5 462.9,392.5 L440.6,392.5 L440.6,443.4 C440.6,451.9 440.8,458.1 441.2,462.1 C441.6,466 442.8,469.3 444.6,471.9 C446.5,474.5 449.5,476.4 453.7,477.6 C457.9,478.8 463.9,479.4 471.6,479.4 L489,479.4 C496.3,479.4 503.3,478.5 510,476.6 C516.6,474.8 523.2,470 529.5,462.2 C535.9,454.5 540.3,442.4 542.9,425.9 L558.2,425.9 L558.2,425.8 Z" id="Shape" fill="#000000"></path>
            <path d="M756.6,425.8 L754.8,496.9 L550.6,496.9 L550.6,482.2 C563.9,482.2 584.1,480.3 587.9,476.5 C591.7,472.7 593.6,466.1 593.6,456.7 L593.6,320.9 C593.6,314.7 593,309.9 591.8,306.5 C590.6,303.1 587.7,300.3 583.2,298.4 C578.7,296.4 571.7,295.4 562.2,295.4 L562.2,280.7 L741.6,280.7 C741.6,280.7 764.1,298.4 753.4,298.4 L639.2,298.4 L639.2,374.8 L661.2,374.8 C668.7,374.8 674.4,374.1 678.1,372.8 C681.8,371.5 684.4,369 685.9,365.2 C687.4,361.5 688.4,355.6 688.9,347.7 L704.2,347.7 L704.2,419.6 L689.5,419.6 C689.1,411.6 688,405.7 686.3,402 C684.6,398.2 681.9,395.7 678.2,394.4 C674.5,393.1 668.9,392.5 661.4,392.5 L639.1,392.5 L639.1,443.4 C639.1,451.9 639.3,458.1 639.7,462.1 C640.1,466 641.3,469.3 643.1,471.9 C645,474.5 648,476.4 652.2,477.6 C656.4,478.8 662.4,479.4 670.1,479.4 L687.5,479.4 C694.8,479.4 701.8,478.5 708.5,476.6 C715.1,474.8 721.7,470 728,462.2 C734.4,454.5 738.8,442.4 741.4,425.9 L756.6,425.9 L756.6,425.8 Z" id="Shape" fill="#000000"></path>
            <path d="M942.5,295.4 C932.2,295.4 924.8,296.4 920.3,298.5 C915.8,300.6 913.1,303.6 912,307.7 C910.9,311.7 910.4,318.3 910.4,327.5 L910.4,498.9 L895.7,498.9 C895.7,498.9 757.8,335.8 754.2,330.8 C750.7,325.8 727.6,301.7 723.5,299.6 C719.4,297.5 713.7,296.1 706.5,295.4 L706.5,280.7 L769.5,280.7 L892.6,426.2 L892.6,327.5 C892.6,319.4 892,313.2 890.9,308.9 C889.8,304.6 887,301.3 882.6,298.9 C878.2,296.6 871.2,295.4 861.6,295.4 L861.6,280.7 L942.3,280.7 L942.3,295.4 L942.5,295.4 Z" id="Shape" fill="#000000"></path>
            <path d="M541.3,115.5 C540.6,160.1 525.9,201.3 501.3,234.8 C532.8,232.5 563.8,219.8 588.8,196.7 C619.6,168.1 635.1,129.2 634.9,90.2 C602.5,87.6 569.3,96 541.3,115.5" id="Shape" fill="#326E59"></path>
            <path d="M407.1,119.4 C378,97.1 342.6,87.5 308.1,90.2 C307.9,129.2 323.4,168.1 354.2,196.7 C380.6,221.2 413.7,233.9 447.1,235.1 C423.2,202.4 408.6,162.6 407.1,119.4" id="Shape" fill="#326E59"></path>
            <path d="M419.6,124.7 C419.6,173.9 440.6,218.2 474.1,249.1 C507.7,218.2 528.7,174 528.7,124.8 C528.7,75.6 507.7,31.3 474.2,0.4 C440.7,31.2 419.6,75.5 419.6,124.7" id="Shape" fill="#326E59"></path>
        </g>
    </g>
</svg>