<?xml version="1.0" encoding="UTF-8"?>
<svg width="364px" height="512px" viewBox="0 0 364 512" version="1.1" xmlns="http://www.w3.org/2000/svg" xmlns:xlink="http://www.w3.org/1999/xlink">
    <!-- Generator: Sketch 48.2 (47327) - http://www.bohemiancoding.com/sketch -->
    <title>html5-with-wordmark-color</title>
    <desc>Created with Sketch.</desc>
    <defs></defs>
    <g id="Page-1" stroke="none" stroke-width="1" fill="none" fill-rule="evenodd">
        <g id="html5-with-wordmark-color" fill-rule="nonzero">
            <g id="Group" transform="translate(34.000000, 0.000000)" fill="#000000">
                <polygon id="Shape" points="0.382 0 23.459 0 23.459 22.8 44.569 22.8 44.569 0 67.647 0 67.647 69.044 44.57 69.044 44.57 45.924 23.46 45.924 23.46 69.044 0.383 69.044"></polygon>
                <polygon id="Shape" points="97.994 22.896 77.678 22.896 77.678 0 141.398 0 141.398 22.896 121.073 22.896 121.073 69.044 97.995 69.044"></polygon>
                <polygon id="Shape" points="151.511 0 175.574 0 190.376 24.26 205.163 0 229.235 0 229.235 69.044 206.253 69.044 206.253 34.822 190.376 59.371 189.979 59.371 174.091 34.822 174.091 69.044 151.511 69.044 151.511 0"></polygon>
                <polygon id="Shape" points="240.72 0 263.804 0 263.804 46.222 296.257 46.222 296.257 69.044 240.72 69.044"></polygon>
            </g>
            <g id="Guides_to_delete" transform="translate(0.000000, 99.000000)">
                <g id="Group">
                    <polygon id="Shape" fill="#E34E26" points="33.125 371.727 0.012 0.297 363.703 0.297 330.549 371.755 181.769 413"></polygon>
                    <polygon id="Shape" fill="#EF662A" points="181.857 30.657 181.857 381.449 302.164 348.101 330.51 30.657"></polygon>
                    <polygon id="Shape" fill="#FFFFFF" points="67.761 76.217 80.041 213.978 237.936 213.978 232.637 273.066 181.799 286.811 131.057 273.085 127.664 235.146 81.937 235.146 88.476 308.282 181.787 334.199 275.219 308.282 287.744 168.429 121.706 168.429 117.538 121.777 291.732 121.777 291.873 121.777 295.953 76.217"></polygon>
                    <g transform="translate(67.000000, 76.000000)" fill="#EBEBEB" id="Shape">
                        <polygon points="114.857 0.217 0.761 0.217 13.041 137.978 114.857 137.978 114.857 92.429 54.706 92.429 50.538 45.777 114.857 45.777"></polygon>
                        <polygon points="114.857 210.791 114.799 210.811 64.057 197.085 60.664 159.146 14.937 159.146 21.476 232.282 114.787 258.199 114.857 258.179"></polygon>
                    </g>
                </g>
            </g>
        </g>
    </g>
</svg>