<?xml version="1.0" encoding="UTF-8"?>
<svg width="41px" height="20px" viewBox="0 0 41 20" version="1.1" xmlns="http://www.w3.org/2000/svg" xmlns:xlink="http://www.w3.org/1999/xlink">
    <!-- Generator: Sketch 48.2 (47327) - http://www.bohemiancoding.com/sketch -->
    <title>php</title>
    <desc>Created with Sketch.</desc>
    <defs></defs>
    <g id="Page-1" stroke="none" stroke-width="1" fill="none" fill-rule="evenodd">
        <g id="php" fill="#000004" fill-rule="nonzero">
            <path d="M8.016,6.397 C8.90891316,6.28047646 9.81092452,6.53087481 10.516,7.091 C10.9733122,7.79424549 11.0838261,8.66804225 10.816,9.463 C10.6985244,10.4317187 10.2303847,11.3238875 9.5,11.971 C8.61867067,12.5319336 7.57988609,12.7935586 6.538,12.717 L4.538,12.717 L5.768,6.397 L8.016,6.397 Z M0,19.106 L3.293,19.106 L4.07,15.088 L6.887,15.088 C7.92266094,15.1153855 8.95638304,14.9835143 9.952,14.697 C10.7714463,14.4318233 11.5190103,13.9819164 12.137,13.382 C13.2134139,12.4098431 13.9380477,11.108948 14.198,9.682 C14.6185816,8.24166535 14.3261686,6.68708336 13.411,5.498 C12.3112222,4.41047569 10.7886787,3.86187728 9.248,3.998 L2.931,3.998 L0,19.106 Z" id="Path_99"></path>
            <path d="M16.621,0 L19.88,0 L19.103,4.018 L22.013,4.018 C23.846,4.018 25.099,4.339 25.793,4.971 C26.487,5.603 26.693,6.638 26.414,8.071 L25.047,15.092 L21.733,15.092 L23.027,8.412 C23.2087637,7.89579625 23.1477645,7.32512282 22.861,6.859 C22.389043,6.51607868 21.8032605,6.36784278 21.225,6.445 L18.615,6.445 L16.937,15.092 L13.68,15.092 L16.621,0 Z" id="Path_100"></path>
            <path d="M33.678,6.397 C34.5709132,6.28047646 35.4729245,6.53087481 36.178,7.091 C36.6353122,7.79424549 36.7458261,8.66804225 36.478,9.463 C36.3603188,10.4308639 35.8925845,11.3222266 35.163,11.969 C34.2816707,12.5299336 33.2428861,12.7915586 32.201,12.715 L30.201,12.715 L31.43,6.397 L33.678,6.397 Z M25.662,19.106 L28.945,19.106 L29.722,15.088 L32.539,15.088 C33.5748156,15.1144112 34.6085407,14.9815278 35.604,14.694 C36.4234463,14.4288233 37.1710103,13.9789164 37.789,13.379 C38.8654139,12.4068431 39.5900477,11.105948 39.85,9.679 C40.2696209,8.23911821 39.9768646,6.68542924 39.062,5.497 C37.964851,4.40531594 36.4403073,3.8559968 34.899,3.997 L28.572,3.997 L25.662,19.106 Z" id="Path_101"></path>
        </g>
    </g>
</svg>