<?xml version="1.0" encoding="utf-8"?>
<!-- Generator: Adobe Illustrator 21.0.0, SVG Export Plug-In . SVG Version: 6.00 Build 0)  -->
<svg version="1.1" id="Layer_1" xmlns="http://www.w3.org/2000/svg" xmlns:xlink="http://www.w3.org/1999/xlink" x="0px" y="0px"
	 viewBox="0 0 163.5 48.2" style="enable-background:new 0 0 163.5 48.2;" xml:space="preserve">
<style type="text/css">
	.st0{fill:#353535;}
	.st1{fill:#192042;}
	.st2{font-family:'Geomanist-Medium';}
	.st3{font-size:37.8325px;}
</style>

<polygon class="st1" points="5.9,26.6 5.8,29.6 13.2,26.6 13.1,23.6 "/>
<polygon class="st1" points="13.4,31.2 13.3,28.4 5.7,31.5 5.6,34.4 "/>
<polygon class="st1" points="6.1,21.7 6,24.7 13,21.8 12.9,19 "/>
<polygon class="st1" points="13.6,35.8 13.5,32.9 6.6,35.7 5.3,35.7 3.3,39 5.3,39 13.6,39 15.6,39 "/>
<path class="st1" d="M13.8,8.3l-0.5-0.5c-2.1-2.1-5.6-2.1-7.7,0L5.1,8.3C5,8.4,5.1,8.6,5.3,8.6h0.3v1h0.6v5H5.6v0.7h0.8l-0.2,4
	l6.6-2.7l-0.1-1.3h0.6v-0.7h-0.6v-5h0.6v-1h0.3C13.8,8.6,14,8.4,13.8,8.3z M7.2,9.7h4.5v4.4H7.2V9.7z"/>
<text transform="matrix(1 0 0 1 16.0915 39.0068)" class="st1 st2 st3">nfoLight</text>
</svg>
