<?xml version="1.0" encoding="UTF-8"?>
<svg width="179px" height="151px" viewBox="0 0 179 151" version="1.1" xmlns="http://www.w3.org/2000/svg" xmlns:xlink="http://www.w3.org/1999/xlink">
    <!-- Generator: Sketch 48.2 (47327) - http://www.bohemiancoding.com/sketch -->
    <title>logo</title>
    <desc>Created with Sketch.</desc>
    <defs></defs>
    <g id="Page-1" stroke="none" stroke-width="1" fill="none" fill-rule="evenodd">
        <g id="logo" fill="#000000" fill-rule="nonzero">
            <path d="M134.2,0.9 C134,0.7 133.7,0.5 133.3,0.5 L127.9,0.5 C127.6,0.5 127.3,0.6 127,0.9 L122.4,5.5 L122.1,5.8 L121.8,5.5 L117.2,0.9 C117,0.7 116.7,0.5 116.3,0.5 L110.9,0.5 C110.6,0.5 110.3,0.6 110,0.9 L90,20.9 L89.7,21.2 L89.4,20.9 L69.4,0.9 C69.2,0.7 68.9,0.5 68.5,0.5 L63.1,0.5 C62.8,0.5 62.5,0.6 62.2,0.9 L57.6,5.5 L57.3,5.8 L57,5.5 L52.4,0.9 C52.2,0.7 51.9,0.5 51.5,0.5 L46,0.5 C45.7,0.5 45.4,0.6 45.1,0.9 L29,17 C28.8,17.2 28.6,17.5 28.6,17.9 L28.6,23.3 C28.6,23.6 28.7,23.9 29,24.2 L33.6,28.8 L33.9,29.1 L33.6,29.4 L29,34 C28.8,34.2 28.6,34.5 28.6,34.9 L28.6,40.3 C28.6,40.6 28.7,40.9 29,41.2 L33.6,45.8 L33.9,46.1 L33.6,46.4 L29,51.1 C28.8,51.3 28.6,51.6 28.6,52 L28.6,57.4 C28.6,57.7 28.7,58 29,58.3 L33.6,62.9 L33.9,63.2 L33.6,63.5 L29,68.2 C28.8,68.4 28.6,68.7 28.6,69.1 L28.6,74.5 C28.6,74.8 28.7,75.1 29,75.4 L33.6,80 L33.9,80.3 L33.6,80.6 L29,85.2 C28.8,85.4 28.6,85.7 28.6,86.1 L28.6,91.5 C28.6,91.8 28.7,92.1 29,92.4 L33.6,97 L33.9,97.3 L33.6,97.6 L29.1,102.1 C28.8,102.4 28.6,102.9 28.6,103.3 L28.6,108.8 L34.1,108.8 C34.6,108.8 35,108.6 35.3,108.3 L39.8,103.8 L40.1,103.5 L40.4,103.8 L44.9,108.3 C45.2,108.6 45.7,108.8 46.1,108.8 L51.6,108.8 L51.6,103.3 C51.6,102.8 51.4,102.4 51.1,102.1 L46.6,97.6 L46.3,97.3 L46.6,97 L51.2,92.4 C51.4,92.2 51.6,91.9 51.6,91.5 L51.6,86.1 C51.6,85.8 51.5,85.5 51.2,85.2 L46.6,80.6 L46.3,80.3 L46.6,80 L51.2,75.4 C51.4,75.2 51.6,74.9 51.6,74.5 L51.6,69 C51.6,68.7 51.5,68.4 51.2,68.1 L46.6,63.5 L46.3,63.2 L46.6,62.9 L51.2,58.3 C51.4,58.1 51.6,57.8 51.6,57.4 L51.6,52 C51.6,51.7 51.5,51.4 51.2,51.1 L46.6,46.5 L46.3,46.2 L46.6,45.9 L51.2,41.3 C51.4,41.1 51.6,40.8 51.6,40.4 L51.6,35 C51.6,34.7 51.5,34.4 51.2,34.1 L46.6,29.5 L46.3,29.2 L46.6,28.9 L56.8,18.7 L57.1,18.4 L57.4,18.7 L74.5,35.8 L74.8,36.1 L74.5,36.4 L68.2,42.7 C68,42.9 67.8,43.2 67.8,43.6 L67.8,49 C67.8,49.3 67.9,49.6 68.2,49.9 L89.6,71.3 L111,49.7 C111.2,49.5 111.4,49.2 111.4,48.8 L111.4,43.4 C111.4,43.1 111.3,42.8 111,42.5 L104.7,36.2 L104.4,35.9 L104.7,35.6 L121.8,18.5 L122.1,18.2 L122.4,18.5 L132.6,28.7 L132.9,29 L132.6,29.3 L128,34 C127.8,34.2 127.6,34.5 127.6,34.9 L127.6,40.3 C127.6,40.6 127.7,40.9 128,41.2 L132.6,45.8 L132.9,46.1 L132.6,46.4 L128,51 C127.8,51.2 127.6,51.5 127.6,51.9 L127.6,57.3 C127.6,57.6 127.7,57.9 128,58.2 L132.6,62.8 L132.9,63.1 L132.6,63.4 L128,68 C127.8,68.2 127.6,68.5 127.6,68.9 L127.6,74.3 C127.6,74.6 127.7,74.9 128,75.2 L132.6,79.8 L132.9,80.1 L132.6,80.4 L128,85 C127.8,85.2 127.6,85.5 127.6,85.9 L127.6,91.3 C127.6,91.6 127.7,91.9 128,92.2 L132.6,96.8 L132.9,97.1 L132.6,97.4 L128.1,101.9 C127.8,102.2 127.6,102.7 127.6,103.1 L127.6,108.6 L133.1,108.6 C133.6,108.6 134,108.4 134.3,108.1 L138.8,103.6 L139.1,103.3 L139.4,103.6 L143.9,108.1 C144.2,108.4 144.7,108.6 145.1,108.6 L150.6,108.6 L150.6,103.1 C150.6,102.6 150.4,102.2 150.1,101.9 L145.6,97.4 L145.3,97.1 L145.6,96.8 L150.2,92.2 C150.4,92 150.6,91.7 150.6,91.3 L150.6,85.9 C150.6,85.6 150.5,85.3 150.2,85 L145.6,80.4 L145.3,80.1 L145.6,79.8 L150.2,75.2 C150.4,75 150.6,74.7 150.6,74.3 L150.6,69 C150.6,68.7 150.5,68.4 150.2,68.1 L145.6,63.5 L145.3,63.2 L145.6,62.9 L150.2,58.3 C150.4,58.1 150.6,57.8 150.6,57.4 L150.6,52 C150.6,51.7 150.5,51.4 150.2,51.1 L145.6,46.5 L145.3,46.2 L145.6,45.9 L150.2,41.3 C150.4,41.1 150.6,40.8 150.6,40.4 L150.6,35 C150.6,34.7 150.5,34.4 150.2,34.1 L145.6,29.5 L145.3,29.2 L145.6,28.9 L150.2,24.3 C150.4,24.1 150.6,23.8 150.6,23.4 L150.6,18 C150.6,17.7 150.5,17.4 150.2,17.1 L134.2,0.9 Z M91.9,22.8 L111.2,3.5 C111.5,3.2 111.8,3.1 112.2,3.1 L114.8,3.1 C115.2,3.1 115.5,3.2 115.8,3.5 L119.8,7.5 L120.1,7.8 L119.8,8.1 L118.1,9.8 L117.8,10.1 L117.5,9.8 L114.7,7 C114.4,6.7 114,6.5 113.6,6.5 C113.2,6.5 112.8,6.7 112.5,7 L94.3,25.2 L94,25.5 L93.7,25.2 L92,23.5 L91.7,23.2 L91.9,22.8 Z M115.9,12 L115.6,12.3 L98.5,29.4 L98.2,29.7 L97.9,29.4 L96.2,27.7 L95.9,27.4 L96.2,27.1 L113.2,10 L113.5,9.7 L113.8,10 L115.5,11.7 L115.9,12 Z M48.7,103.6 C49,103.9 49.1,104.3 49.1,104.7 L49.1,106 L49.1,106.5 L48.6,106.5 L47.3,106.5 C46.9,106.5 46.5,106.3 46.2,106.1 L42.2,102.1 L41.9,101.8 L42.2,101.5 L43.9,99.8 L44.2,99.5 L44.5,99.8 L48.7,103.6 Z M48.7,86.5 C49,86.8 49.1,87.1 49.1,87.5 L49.1,90.1 C49.1,90.5 49,90.8 48.7,91.1 L44.7,95.1 L42.1,97.7 L40.4,99.4 L37.8,102 L33.8,106 C33.5,106.3 33.1,106.4 32.7,106.4 L31.4,106.4 L30.9,106.4 L30.9,105.9 L30.9,104.6 C30.9,104.2 31.1,103.8 31.3,103.5 L35.3,99.5 L37.9,96.9 L39.6,95.2 L42.2,92.6 L45,89.8 C45.3,89.5 45.5,89.1 45.5,88.7 C45.5,88.3 45.3,87.9 45,87.6 L42.2,84.8 L41.9,84.5 L42.2,84.2 L43.9,82.5 L44.2,82.2 L44.5,82.5 L48.7,86.5 Z M38.1,89.1 L37.8,88.8 L38.1,88.5 L39.8,86.8 L40.1,86.5 L40.4,86.8 L42.1,88.5 L42.4,88.8 L42.1,89.1 L40.4,90.8 L40.1,91.1 L39.8,90.8 L38.1,89.1 Z M48.7,69.4 C49,69.7 49.1,70 49.1,70.4 L49.1,73 C49.1,73.4 49,73.7 48.7,74 L44.7,78 L42.1,80.6 L40.4,82.3 L37.8,84.9 L35,87.7 C34.7,88 34.5,88.4 34.5,88.8 C34.5,89.2 34.7,89.6 35,89.9 L37.8,92.7 L38.1,93 L37.8,93.3 L36.1,95 L35.8,95.3 L35.5,95 L31.5,91 C31.2,90.7 31.1,90.4 31.1,90 L31.1,87.4 C31.1,87 31.2,86.7 31.5,86.4 L35.5,82.4 L38.1,79.8 L39.8,78.1 L42.4,75.5 L45.2,72.7 C45.8,72.1 45.8,71.1 45.2,70.5 L42.4,67.7 L42.1,67.4 L42.4,67.1 L44.1,65.4 L44.4,65.1 L44.7,65.4 L48.7,69.4 Z M38.1,72.1 L37.8,71.8 L38.1,71.5 L39.8,69.8 L40.1,69.5 L40.4,69.8 L42.1,71.5 L42.4,71.8 L42.1,72.1 L40.4,73.8 L40.1,74.1 L39.8,73.8 L38.1,72.1 Z M48.7,52.4 C49,52.7 49.1,53 49.1,53.4 L49.1,56 C49.1,56.4 49,56.7 48.7,57 L44.7,61 L42.1,63.6 L40.4,65.3 L37.8,67.9 L35,70.7 C34.4,71.3 34.4,72.3 35,72.9 L37.8,75.7 L38.1,76 L37.8,76.3 L36.1,78 L35.8,78.3 L35.5,78 L31.5,74 C31.2,73.7 31.1,73.4 31.1,73 L31.1,70.4 C31.1,70 31.2,69.7 31.5,69.4 L35.5,65.4 L38.1,62.8 L39.8,61.1 L42.4,58.5 L45.2,55.7 C45.5,55.4 45.7,55 45.7,54.6 C45.7,54.2 45.5,53.8 45.2,53.5 L42.4,50.7 L42.1,50.4 L42.4,50.1 L44.1,48.4 L44.4,48.1 L44.7,48.4 L48.7,52.4 Z M38.1,55 L37.8,54.7 L38.1,54.4 L39.8,52.7 L40.1,52.4 L40.4,52.7 L42.1,54.4 L42.4,54.7 L42.2,55 L40.5,56.7 L40.2,57 L39.9,56.7 L38.1,55 Z M48.7,35.3 C49,35.6 49.1,35.9 49.1,36.3 L49.1,38.9 C49.1,39.3 49,39.6 48.7,39.9 L44.7,43.9 L42.1,46.5 L40.4,48.2 L37.8,50.8 L35,53.6 C34.7,53.9 34.5,54.3 34.5,54.7 C34.5,55.1 34.7,55.5 35,55.8 L37.8,58.6 L38.1,58.9 L37.8,59.2 L36.2,61 L35.9,61.3 L35.6,61 L31.6,57 C31.3,56.7 31.2,56.4 31.2,56 L31.2,53.4 C31.2,53 31.3,52.7 31.6,52.4 L35.6,48.4 L38.2,45.8 L39.9,44.1 L42.5,41.5 L45.3,38.7 C45.9,38.1 45.9,37.1 45.3,36.5 L42.5,33.7 L42.2,33.4 L42.5,33.1 L44.2,31.4 L44.5,31.1 L44.8,31.4 L48.7,35.3 Z M38.1,37.9 L37.8,37.6 L38.1,37.3 L39.8,35.6 L40.1,35.3 L40.4,35.6 L42.1,37.3 L42.4,37.6 L42.1,37.9 L40.4,39.6 L40.2,40 L39.9,39.7 L38.1,37.9 Z M55,16.6 L44.8,26.8 L42.2,29.4 L40.5,31.1 L37.9,33.7 L35.1,36.5 C34.5,37.1 34.5,38.1 35.1,38.7 L37.9,41.5 L38.2,41.8 L37.9,42.1 L36.2,43.8 L35.9,44.1 L35.6,43.8 L31.6,39.8 C31.3,39.5 31.2,39.2 31.2,38.8 L31.2,36.2 C31.2,35.8 31.3,35.5 31.6,35.2 L35.6,31.2 L38.2,28.6 L39.9,26.9 L42.5,24.3 L52.7,14.1 L53,13.8 L53.3,14.1 L55,16 L55.3,16.3 L55,16.6 Z M38.1,20.9 L37.8,20.6 L38.1,20.3 L39.8,18.6 L41.5,16.9 L48.3,10.1 L48.6,9.8 L49,10 L50.7,11.7 L51,12 L50.7,12.3 L40.5,22.6 L40.2,22.9 L39.9,22.6 L38.1,20.9 Z M59.5,16.6 L56.9,14 L55.2,12.3 L52.6,9.7 L49.8,7 C49.5,6.7 49.1,6.5 48.7,6.5 C48.3,6.5 47.9,6.7 47.6,7 L35.1,19.4 C34.8,19.7 34.6,20.1 34.6,20.5 C34.6,20.9 34.8,21.3 35.1,21.6 L37.9,24.4 L38.2,24.7 L37.9,25 L36.2,26.7 L35.9,27 L35.6,26.7 L31.6,22.7 C31.3,22.4 31.2,22.1 31.2,21.7 L31.2,19.1 C31.2,18.7 31.3,18.4 31.6,18.1 L46.4,3.3 C46.7,3 47,2.9 47.4,2.9 L50,2.9 C50.4,2.9 50.7,3 51,3.3 L55,7.3 L57.6,9.9 L59.3,11.6 L61.9,14.2 L79,31.3 L79.3,31.6 L79,31.9 L77.3,33.6 L77,33.9 L76.7,33.6 L59.5,16.6 Z M63.4,12 L63.7,11.7 L65.4,10 L65.7,9.7 L66,10 L83.2,27 L83.5,27.3 L83.2,27.6 L81.5,29.3 L81.2,29.6 L80.9,29.3 L63.7,12.3 L63.4,12 Z M108.5,43.8 C108.8,44.1 108.9,44.4 108.9,44.8 L108.9,47.4 C108.9,47.8 108.8,48.1 108.5,48.4 L90,67 L89.7,67.3 L89.4,67 L70.8,48.5 C70.5,48.2 70.4,47.9 70.4,47.5 L70.4,44.9 C70.4,44.5 70.5,44.2 70.8,43.9 L76.5,38.2 L79.1,35.6 L80.8,33.9 L83.4,31.3 L85.1,29.6 L85.4,29.3 L85.7,29.6 L87.4,31.3 L87.7,31.6 L87.4,31.9 L85.7,33.6 L83.1,36.2 L81.4,37.9 L78.8,40.5 L74.4,45 C73.8,45.6 73.8,46.6 74.4,47.2 L89.7,62.5 L105,47.3 C105.3,47 105.5,46.6 105.5,46.2 C105.5,45.8 105.3,45.4 105,45.1 L100.5,40.6 L97.9,38 L96.2,36.3 L93.6,33.7 L91.9,32 L89.3,29.4 L87.6,27.7 L85,25.1 L66.9,7 C66.6,6.7 66.2,6.5 65.8,6.5 C65.4,6.5 65,6.7 64.7,7 L61.9,9.8 L61.6,10.1 L61.3,9.8 L59.6,8.1 L59.3,7.8 L59.6,7.5 L63.6,3.5 C63.9,3.2 64.2,3.1 64.6,3.1 L67.2,3.1 C67.6,3.1 67.9,3.2 68.2,3.5 L87.5,22.8 L90.1,25.4 L91.8,27.1 L94.4,29.7 L96.1,31.4 L98.7,34 L100.4,35.7 L103,38.3 L108.5,43.8 Z M96,40.5 L90,46.5 L89.7,46.8 L89.4,46.5 L83.4,40.5 L83.1,40.2 L83.4,39.9 L85.1,38.2 L85.4,37.9 L85.7,38.2 L89.6,42.1 L93.5,38.2 L93.8,37.9 L94.1,38.2 L95.8,39.9 L96.1,40.2 L96,40.5 Z M97.9,42.4 L98.2,42.1 L98.5,42.4 L101.9,45.8 L102.2,46.1 L101.9,46.4 L90,58.4 L89.7,58.7 L89.4,58.4 L77.5,46.5 L77.2,46.2 L77.5,45.9 L80.9,42.5 L81.2,42.2 L81.5,42.5 L89.7,50.7 L97.9,42.4 Z M91.7,36.2 L90,37.9 L89.7,38.2 L89.4,37.9 L87.7,36.2 L87.4,35.9 L87.7,35.6 L89.4,33.9 L89.7,33.6 L90,33.9 L91.7,35.6 L92,35.9 L91.7,36.2 Z M136.9,102 L132.9,106 C132.6,106.3 132.2,106.4 131.8,106.4 L130.5,106.4 L130,106.4 L130,105.9 L130,104.6 C130,104.2 130.2,103.8 130.4,103.5 L134.4,99.5 L134.7,99.2 L135,99.5 L136.7,101.2 L137,101.5 L136.9,102 Z M147.7,103.6 C148,103.9 148.1,104.3 148.1,104.7 L148.1,106 L148.1,106.5 L147.6,106.5 L146.3,106.5 C145.9,106.5 145.5,106.3 145.2,106.1 L141.2,102.1 L138.6,99.5 L136.9,97.8 L134.3,95.2 L130.3,91.2 C130,90.9 129.9,90.6 129.9,90.2 L129.9,87.6 C129.9,87.2 130,86.9 130.3,86.6 L134.3,82.6 L134.6,82.3 L134.9,82.6 L136.6,84.3 L136.9,84.6 L136.6,84.9 L133.8,87.7 C133.5,88 133.3,88.4 133.3,88.8 C133.3,89.2 133.5,89.6 133.8,89.9 L136.6,92.7 L139.2,95.3 L140.9,97 L143.5,99.6 L147.7,103.6 Z M138.8,86.8 L139.1,86.5 L139.4,86.8 L141.1,88.5 L141.4,88.8 L141.1,89.1 L139.4,90.8 L139.1,91.1 L138.8,90.8 L137.1,89.1 L136.8,88.8 L137.1,88.5 L138.8,86.8 Z M147.7,86.5 C148,86.8 148.1,87.1 148.1,87.5 L148.1,90.1 C148.1,90.5 148,90.8 147.7,91.1 L143.7,95.1 L143.4,95.4 L143.1,95.1 L141.4,93.4 L141.1,93.1 L141.4,92.8 L144.2,90 C144.5,89.7 144.7,89.3 144.7,88.9 C144.7,88.5 144.5,88.1 144.2,87.8 L141.4,85 L138.8,82.4 L137.1,80.7 L134.5,78.1 L130.5,74.1 C130.2,73.8 130.1,73.5 130.1,73.1 L130.1,70.5 C130.1,70.1 130.2,69.8 130.5,69.5 L134.5,65.5 L134.8,65.2 L135.1,65.5 L136.8,67.2 L137.1,67.5 L136.8,67.8 L134,70.6 C133.7,70.9 133.5,71.3 133.5,71.7 C133.5,72.1 133.7,72.5 134,72.8 L136.8,75.6 L139.4,78.2 L141.1,79.9 L143.7,82.5 L147.7,86.5 Z M138.8,69.7 L139.1,69.4 L139.4,69.7 L141.1,71.4 L141.4,71.7 L141.1,72 L139.4,73.7 L139.1,74 L138.8,73.7 L137.1,72 L136.8,71.7 L137.1,71.4 L138.8,69.7 Z M147.7,69.4 C148,69.7 148.1,70 148.1,70.4 L148.1,73 C148.1,73.4 148,73.7 147.7,74 L143.7,78 L143.4,78.3 L143.1,78 L141.4,76.3 L141.1,76 L141.4,75.7 L144.2,72.9 C144.5,72.6 144.7,72.2 144.7,71.8 C144.7,71.4 144.5,71 144.2,70.7 L141.4,67.9 L138.8,65.3 L137.1,63.6 L134.5,61 L130.5,57 C130.2,56.7 130.1,56.4 130.1,56 L130.1,53.4 C130.1,53 130.2,52.7 130.5,52.4 L134.5,48.4 L134.8,48.1 L135.1,48.4 L136.8,50.1 L137.1,50.4 L136.8,50.7 L134,53.5 C133.7,53.8 133.5,54.2 133.5,54.6 C133.5,55 133.7,55.4 134,55.7 L136.8,58.5 L139.4,61.1 L141.1,62.8 L143.7,65.4 L147.7,69.4 Z M138.8,52.7 L139.1,52.4 L139.4,52.7 L141.1,54.4 L141.4,54.7 L141.1,55 L139.4,56.7 L139.1,57 L138.8,56.7 L137.1,55 L136.8,54.7 L137.1,54.4 L138.8,52.7 Z M147.7,52.4 C148,52.7 148.1,53 148.1,53.4 L148.1,56 C148.1,56.4 148,56.7 147.7,57 L143.7,61 L143.4,61.3 L143.1,61 L141.4,59.3 L141.1,59 L141.4,58.7 L144.2,55.9 C144.5,55.6 144.7,55.2 144.7,54.8 C144.7,54.4 144.5,54 144.2,53.7 L141.4,50.9 L138.8,48.3 L137.1,46.6 L134.5,44 L130.5,40 C130.2,39.7 130.1,39.4 130.1,39 L130.1,36.4 C130.1,36 130.2,35.7 130.5,35.4 L134.5,31.4 L134.8,31.1 L135.1,31.4 L136.8,33.1 L137.1,33.4 L136.8,33.7 L134,36.5 C133.7,36.8 133.5,37.2 133.5,37.6 C133.5,38 133.7,38.4 134,38.7 L136.8,41.5 L139.4,44.1 L141.1,45.8 L143.7,48.4 L147.7,52.4 Z M138.8,35.6 L139.1,35.3 L139.4,35.6 L141.1,37.3 L141.4,37.6 L141.1,37.9 L139.4,39.6 L139.1,39.9 L138.8,39.6 L137.1,37.9 L136.8,37.6 L137.1,37.3 L138.8,35.6 Z M147.7,35.3 C148,35.6 148.1,35.9 148.1,36.3 L148.1,38.9 C148.1,39.3 148,39.6 147.7,39.9 L143.7,43.9 L143.4,44.2 L143.1,43.9 L141.4,42.2 L141.1,41.9 L141.4,41.6 L144.2,38.8 C144.5,38.5 144.7,38.1 144.7,37.7 C144.7,37.3 144.5,36.9 144.2,36.6 L141.4,33.8 L138.8,31.2 L137.1,29.5 L134.5,26.9 L124.3,16.7 L124,16.4 L124.3,16.1 L126,14.4 L126.3,14.1 L126.6,14.4 L136.8,24.6 L139.4,27.2 L141.1,28.9 L143.7,31.5 L147.7,35.3 Z M128.3,12 L128.6,11.7 L130.3,10 L130.6,9.7 L130.9,10 L141.2,20.2 L141.5,20.5 L141.2,20.8 L139.5,22.5 L139.2,22.8 L138.9,22.5 L128.7,12.3 L128.3,12 Z M148.2,21.9 C148.2,22.3 148.1,22.6 147.8,22.9 L143.8,26.9 L143.5,27.2 L143.2,26.9 L141.5,25.2 L141.2,24.9 L141.5,24.6 L144.3,21.8 C144.6,21.5 144.8,21.1 144.8,20.7 C144.8,20.3 144.6,19.9 144.3,19.6 L131.7,7 C131.4,6.7 131,6.5 130.6,6.5 C130.2,6.5 129.8,6.7 129.5,7 L126.7,9.8 L124.1,12.4 L122.4,14.1 L119.8,16.7 L102.7,33.8 L102.4,34.1 L102.1,33.8 L100.4,32.1 L100.1,31.8 L100.4,31.5 L117.5,14.4 L120.1,11.8 L121.8,10.1 L124.4,7.5 L128.4,3.5 C128.7,3.2 129,3.1 129.4,3.1 L132,3.1 C132.4,3.1 132.7,3.2 133,3.5 L147.8,18.3 C148.1,18.6 148.2,18.9 148.2,19.3 L148.2,21.9 Z" id="Shape"></path>
            <g id="Group" transform="translate(0.000000, 129.000000)">
                <polygon id="Shape" points="2.8 1.5 7.6 8.9 12.4 1.5 14.7 1.5 14.7 16.2 12.2 16.2 12.2 6.3 7.6 13.3 3 6.3 3 16.2 0.5 16.2 0.5 1.5"></polygon>
                <path d="M19.2,1.4 C20.1,1.4 20.9,2.1 20.9,3.1 C20.9,4.1 20.2,4.8 19.2,4.8 C18.3,4.8 17.5,4.1 17.5,3.1 C17.5,2.1 18.3,1.4 19.2,1.4 Z M18,6.2 L20.5,6.2 L20.5,16.2 L18,16.2 L18,6.2 Z" id="Shape"></path>
                <path d="M32.9,16.2 L30.6,16.2 L30.6,14.9 C30.6,14.9 29.7,16.5 27.6,16.5 C25,16.5 22.7,14.3 22.7,11.3 C22.7,8.2 25,6.1 27.6,6.1 C29.5,6.1 30.4,7.4 30.4,7.4 L30.4,0.4 L32.9,0.4 L32.9,16.2 Z M30.4,9.7 C30.4,9.7 29.7,8.3 28,8.3 C26.3,8.3 25.3,9.5 25.3,11.2 C25.3,12.8 26.3,14.1 28,14.1 C29.7,14.1 30.4,12.7 30.4,12.7 L30.4,9.7 Z" id="Shape"></path>
                <path d="M45.3,16.2 L43,16.2 L43,14.9 C43,14.9 42.1,16.5 40,16.5 C37.4,16.5 35.1,14.3 35.1,11.3 C35.1,8.2 37.4,6.1 40,6.1 C41.9,6.1 42.8,7.4 42.8,7.4 L42.8,0.4 L45.3,0.4 L45.3,16.2 Z M42.7,9.7 C42.7,9.7 42,8.3 40.3,8.3 C38.6,8.3 37.6,9.5 37.6,11.2 C37.6,12.8 38.6,14.1 40.3,14.1 C42,14.1 42.7,12.7 42.7,12.7 L42.7,9.7 Z" id="Shape"></path>
                <path d="M57.4,11.2 C57.4,11.4 57.4,11.8 57.4,12.1 L50,12.1 C50.2,13 51.2,14.1 52.8,14.1 C54.5,14.1 55.5,13.1 55.5,13.1 L56.8,15 C56.8,15 55.2,16.4 52.8,16.4 C49.8,16.4 47.4,14.1 47.4,11.2 C47.4,8.3 49.5,6 52.4,6 C55.2,6 57.4,8.1 57.4,11.2 Z M54.9,10.3 C54.9,9.4 54.1,8.3 52.4,8.3 C50.8,8.3 50,9.4 50,10.3 L54.9,10.3 Z" id="Shape"></path>
                <polygon id="Shape" points="59.6 0.3 62.1 0.3 62.1 16.2 59.6 16.2"></polygon>
                <path d="M73.7,9.7 L73.7,16.2 L71.4,16.2 L71.4,14.9 C71.4,14.9 70.4,16.4 68.1,16.4 C66.2,16.4 64.5,15.2 64.5,13.1 C64.5,11.2 66.2,9.8 68.4,9.8 C70.2,9.8 71.2,10.5 71.2,10.5 L71.2,10 C71.2,8.7 69.9,8.3 69.1,8.3 C67.6,8.3 66.1,9 66.1,9 L65.3,6.9 C65.3,6.9 67.2,6 69.2,6 C72,6 73.7,7.4 73.7,9.7 Z M71.2,13.2 L71.2,12.2 C71.2,12.2 70.3,11.7 68.9,11.7 C68.1,11.7 67,12 67,13.1 C67,14.2 68,14.4 68.8,14.4 C70.4,14.4 71.2,13.2 71.2,13.2 Z" id="Shape"></path>
                <polygon id="Shape" points="76.5 0.3 79 0.3 79 16.2 76.5 16.2"></polygon>
                <path d="M91.4,16.2 L89,16.2 L89,14.9 C89,14.9 88.1,16.5 86,16.5 C83.4,16.5 81.1,14.3 81.1,11.3 C81.1,8.2 83.4,6.1 86,6.1 C87.9,6.1 88.8,7.4 88.8,7.4 L88.8,0.4 L91.3,0.4 L91.3,16.2 L91.4,16.2 Z M88.9,9.7 C88.9,9.7 88.2,8.3 86.5,8.3 C84.8,8.3 83.8,9.5 83.8,11.2 C83.8,12.8 84.8,14.1 86.5,14.1 C88.2,14.1 88.9,12.7 88.9,12.7 L88.9,9.7 Z" id="Shape"></path>
                <path d="M103.6,11.2 C103.6,11.4 103.6,11.8 103.6,12.1 L96.2,12.1 C96.4,13 97.4,14.1 99,14.1 C100.7,14.1 101.7,13.1 101.7,13.1 L103,15 C103,15 101.4,16.4 99,16.4 C96,16.4 93.6,14.1 93.6,11.2 C93.6,8.3 95.7,6 98.6,6 C101.3,6 103.6,8.1 103.6,11.2 Z M101,10.3 C101,9.4 100.2,8.3 98.5,8.3 C96.9,8.3 96.1,9.4 96.1,10.3 L101,10.3 Z" id="Shape"></path>
                <path d="M112.2,6.3 L111.3,8.6 C111.3,8.6 110.8,8.4 110.1,8.4 C108.6,8.4 107.9,9.7 107.9,9.7 L107.9,16.2 L105.4,16.2 L105.4,6.2 L107.8,6.2 L107.8,7.7 C107.8,7.7 108.7,6 110.5,6 C111.4,6 112.2,6.3 112.2,6.3 Z" id="Shape"></path>
                <path d="M114.1,12.8 C114.1,12.8 115.4,14.2 117.1,14.2 C118.1,14.2 119,13.9 119,13.3 C119,12.6 118.5,12.5 117,12.2 C115,11.8 113.3,10.9 113.3,9 C113.3,7.4 114.9,5.9 117.6,5.9 C119.8,5.9 121.3,7.1 121.3,7.1 L120,8.9 C120,8.9 118.9,8 117.5,8 C116.6,8 115.7,8.3 115.7,8.9 C115.7,9.5 116.4,9.7 118.1,10 C120.1,10.4 121.5,11.1 121.5,13.1 C121.5,14.8 119.7,16.2 117.1,16.2 C114.2,16.2 112.6,14.4 112.6,14.4 L114.1,12.8 Z" id="Shape"></path>
                <polygon id="Shape" points="126.3 10.2 129.9 6.3 133.2 6.3 128.8 11 133.5 16.3 130.2 16.3 126.4 11.9 126.4 16.3 123.9 16.3 123.9 0.4 126.4 0.4 126.4 10.2"></polygon>
                <path d="M144.2,11.2 C144.2,14.1 141.8,16.4 138.9,16.4 C135.9,16.4 133.6,14.1 133.6,11.2 C133.6,8.3 136,6 138.9,6 C141.9,6 144.2,8.3 144.2,11.2 Z M141.7,11.2 C141.7,9.6 140.6,8.3 138.9,8.3 C137.2,8.3 136.1,9.6 136.1,11.2 C136.1,12.8 137.2,14.1 138.9,14.1 C140.6,14.1 141.7,12.8 141.7,11.2 Z" id="Shape"></path>
                <path d="M150.3,16.5 C147.7,16.5 145.4,14.3 145.4,11.3 C145.4,8.2 147.7,6.1 150.3,6.1 C152.4,6.1 153.3,7.7 153.3,7.7 L153.3,6.4 L155.6,6.4 L155.6,16.5 C155.6,20 153,21.5 150.2,21.5 C147.3,21.5 145.5,19.6 145.5,19.6 L146.9,17.7 C146.9,17.7 148.3,19.2 150.2,19.2 C152.2,19.2 153,18.1 153,16.6 L153,15.4 C152.8,15.6 151.9,16.5 150.3,16.5 Z M153.1,9.7 C153.1,9.7 152.4,8.3 150.7,8.3 C149,8.3 148,9.5 148,11.2 C148,12.8 149,14.1 150.7,14.1 C152.3,14.1 153.1,12.7 153.1,12.7 L153.1,9.7 Z" id="Shape"></path>
                <path d="M167.5,11.2 C167.5,11.4 167.5,11.8 167.5,12.1 L160,12.1 C160.2,13 161.2,14.1 162.8,14.1 C164.5,14.1 165.5,13.1 165.5,13.1 L166.8,15 C166.8,15 165.2,16.4 162.8,16.4 C159.8,16.4 157.4,14.1 157.4,11.2 C157.4,8.3 159.5,6 162.4,6 C165.2,6 167.5,8.1 167.5,11.2 Z M165,10.3 C165,9.4 164.2,8.3 162.5,8.3 C160.9,8.3 160.1,9.4 160.1,10.3 L165,10.3 Z" id="Shape"></path>
                <path d="M178.4,9.8 L178.4,16.3 L175.9,16.3 L175.9,10.5 C175.9,9.1 175,8.5 173.9,8.5 C172.6,8.5 171.9,9.8 171.9,9.8 L171.9,16.4 L169.4,16.4 L169.4,6.4 L171.8,6.4 L171.8,7.9 C171.8,7.9 172.7,6.2 174.8,6.2 C176.6,6 178.4,7.4 178.4,9.8 Z" id="Shape"></path>
            </g>
        </g>
    </g>
</svg>