<?xml version="1.0" encoding="utf-8"?>
<!-- Generator: Adobe Illustrator 19.2.1, SVG Export Plug-In . SVG Version: 6.00 Build 0)  -->
<svg version="1.0" id="Layer_1" xmlns="http://www.w3.org/2000/svg" xmlns:xlink="http://www.w3.org/1999/xlink" x="0px" y="0px"
	 viewBox="0 0 283.5 59.4" enable-background="new 0 0 283.5 59.4" xml:space="preserve">
<path fill="#222223" d="M3.2,7.8h16.3c12.1,0,22,9.8,22,22c0,12.1-9.8,22-22,22H3.2V7.8z M14.6,40.3h4.9c5.7,0,10.4-4.7,10.4-10.4
	c0-5.7-4.7-10.4-10.4-10.4h-4.9V40.3z"/>
<path fill="#222223" d="M44.1,7.8h27.3v9.5H55.7v7.1h13.9v9.7H55.7v8.1h15.7v9.4H44.1V7.8z"/>
<path fill="#222223" d="M74.4,7.8H86v32.3h15.8v11.6H74.4V7.8z"/>
<path fill="#222223" d="M104.8,7.8h11.5v43.9h-11.5V7.8z"/>
<path fill="#222223" d="M175.1,0l-27.6,59.4h-7.1L112.7,0h15.7l15.6,33.8L159.6,0H175.1z"/>
<path fill="#222223" d="M171.5,7.8h27.3v9.5H183v7.1H197v9.7H183v8.1h15.7v9.4h-27.3V7.8z"/>
<path fill="#222223" d="M229.5,51.7L222.7,40h-7.1v11.7H204V7.8h18.5c8.9,0,16.2,7.3,16.2,16.2c0,4.7-2,8.9-5.2,11.8l9.3,15.9H229.5
	z M215.6,30.1h7.1c3.5,0,6.3-2.8,6.3-6.3s-2.8-6.3-6.3-6.3h-7.1V30.1z"/>
<path fill="#222223" d="M264.3,35.5v16.2h-11.4V35.5l-16-27.8h13.3l8.4,14.6L267,7.8h13.3L264.3,35.5z"/>
</svg>
