<?xml version="1.0" encoding="utf-8"?>
<!-- Generator: Adobe Illustrator 22.0.0, SVG Export Plug-In . SVG Version: 6.00 Build 0)  -->
<svg version="1.1" id="Layer_1" xmlns="http://www.w3.org/2000/svg" xmlns:xlink="http://www.w3.org/1999/xlink" x="0px" y="0px"
	 viewBox="0 0 283.5 155.9" style="enable-background:new 0 0 283.5 155.9;" xml:space="preserve">
<style type="text/css">
	.st0{fill:#FFDF00;}
</style>
<g>
	<circle cx="236.3" cy="74.8" r="32.9"/>
	<circle class="st0" cx="236.3" cy="74.8" r="19.8"/>
	<path d="M79.5,78.6c0.2,0,0.3-0.1,0.4-0.3c0.1-1.1,0.2-2.3,0.2-3.5C80,56.1,64.4,41,45.5,41.9C28.7,42.7,15,56.3,14.2,73.2
		c-0.9,18.9,14.2,34.5,32.9,34.5c14.4,0,26.7-9.3,31.1-22.2c0.1-0.2-0.1-0.4-0.3-0.4l-14.7,0c-0.3,0-0.6,0.2-0.7,0.4
		c-3.3,5.2-9,8.6-15.4,8.6c-9,0-16.5-6.7-18.2-15.5h36.3c0,0,0,0,0,0L79.5,78.6z M47.1,54.8c7.4,0,13.7,4.8,16.7,11.5H30.4
		C33.4,59.7,39.7,54.8,47.1,54.8z"/>
	<path d="M87.2,14.6c0-0.2,0.1-0.3,0.3-0.3h1.4c6.5,0,12.6,4.9,12.6,13.1l0,40c0,0.1-0.1,0.2,0,0.1l20.8-23.7
		c0.2-0.2,0.4-0.3,0.6-0.3l17.8,0c0.2,0,0.3,0.2,0.2,0.4L120,65.7c0,0,0,0.1,0,0.1l24,40.4c0.1,0.1,0,0.3-0.2,0.3h-16.3
		c-0.1,0-0.2-0.1-0.3-0.2l-17.5-29.6c-0.1-0.1-0.2-0.1-0.3,0l-7.7,8.1c-0.1,0.1-0.1,0.1-0.1,0.2l0,21.2c0,0.2-0.1,0.3-0.3,0.3H87.5
		c-0.2,0-0.3-0.1-0.3-0.3L87.2,14.6z"/>
	<path d="M149.6,14.6c0-0.2,0.1-0.3,0.3-0.3h1.4c6.5,0,12.6,4.9,12.6,13.1l0,40c0,0.1-0.1,0.2,0,0.1l20.8-23.7
		c0.2-0.2,0.4-0.3,0.6-0.3l17.8,0c0.2,0,0.3,0.2,0.2,0.4l-20.9,21.7c0,0,0,0.1,0,0.1l24,40.4c0.1,0.1,0,0.3-0.2,0.3h-16.3
		c-0.1,0-0.2-0.1-0.3-0.2l-17.5-29.6c-0.1-0.1-0.2-0.1-0.3,0l-7.7,8.1c-0.1,0.1-0.1,0.1-0.1,0.2l0,21.2c0,0.2-0.1,0.3-0.3,0.3h-13.8
		c-0.2,0-0.3-0.1-0.3-0.3L149.6,14.6z"/>
	<g>
		<path d="M150,124.5h5.3c1.1,0,2,0.1,2.7,0.4c0.7,0.3,1.3,0.7,1.8,1.1c0.5,0.5,0.8,1,1,1.6c0.2,0.6,0.3,1.2,0.3,1.8
			c0,1.1-0.3,2-0.8,2.8c-0.5,0.8-1.3,1.4-2.3,1.8l3.9,7.1h-2.7l-3.6-6.8h-3.4v6.8H150V124.5z M155.5,132.3c1.1,0,1.8-0.3,2.4-0.8
			c0.5-0.5,0.8-1.2,0.8-2.1c0-0.9-0.3-1.6-0.9-2.1c-0.6-0.5-1.4-0.8-2.4-0.8h-3.2v5.8H155.5z"/>
		<path d="M164.9,124.5h10.5v2.1h-8.1v4.9h6.1v2.2h-6.1v5.4h8.7v2.2h-11.1V124.5z"/>
		<path d="M179.5,137.1c0.2,0.3,0.5,0.5,0.8,0.8c0.3,0.3,0.6,0.5,1,0.7c0.4,0.2,0.8,0.4,1.2,0.5c0.5,0.1,0.9,0.2,1.5,0.2
			c1.1,0,2-0.3,2.6-0.8c0.6-0.5,0.9-1.2,0.9-2c0-0.9-0.4-1.6-1.1-2.1c-0.7-0.5-1.7-0.8-3-1.1c-0.7-0.2-1.4-0.4-2-0.6
			c-0.6-0.3-1.1-0.6-1.5-1c-0.4-0.4-0.8-0.9-1-1.4c-0.2-0.5-0.4-1.1-0.4-1.8c0-0.6,0.1-1.2,0.4-1.8c0.2-0.6,0.6-1,1.1-1.5
			c0.5-0.4,1.1-0.8,1.8-1c0.7-0.3,1.5-0.4,2.4-0.4c0.8,0,1.5,0.1,2.1,0.3c0.6,0.2,1.1,0.4,1.5,0.6c0.4,0.3,0.8,0.5,1,0.8
			c0.3,0.3,0.4,0.5,0.6,0.7l-1.6,1.5c-0.1-0.1-0.3-0.3-0.5-0.5c-0.2-0.2-0.5-0.4-0.8-0.6c-0.3-0.2-0.7-0.3-1.1-0.5
			c-0.4-0.1-0.9-0.2-1.4-0.2c-0.5,0-1,0.1-1.4,0.2c-0.4,0.1-0.7,0.3-1,0.6c-0.3,0.2-0.4,0.5-0.6,0.8c-0.1,0.3-0.2,0.6-0.2,0.9
			c0,0.4,0.1,0.8,0.3,1.1c0.2,0.3,0.4,0.6,0.8,0.8c0.3,0.2,0.7,0.4,1.2,0.6c0.5,0.2,1.1,0.3,1.7,0.5c0.6,0.2,1.2,0.3,1.8,0.6
			c0.6,0.2,1.1,0.6,1.6,1c0.5,0.4,0.8,0.9,1.1,1.5c0.3,0.6,0.4,1.3,0.4,2.2c0,0.7-0.2,1.4-0.5,2c-0.3,0.6-0.7,1.1-1.2,1.6
			c-0.5,0.4-1.1,0.8-1.9,1c-0.7,0.2-1.5,0.4-2.3,0.4c-0.8,0-1.5-0.1-2.1-0.3c-0.6-0.2-1.2-0.4-1.8-0.7c-0.5-0.3-1-0.6-1.4-0.9
			c-0.4-0.3-0.7-0.7-1-1L179.5,137.1z"/>
		<path d="M193.5,124.5h5.3c1.1,0,2.1,0.2,2.8,0.5c0.7,0.3,1.3,0.7,1.8,1.2c0.4,0.5,0.8,1,0.9,1.6c0.2,0.6,0.3,1.2,0.3,1.8
			c0,0.8-0.1,1.6-0.4,2.2c-0.3,0.6-0.7,1.2-1.2,1.6c-0.5,0.4-1.1,0.7-1.8,1c-0.7,0.2-1.4,0.3-2.3,0.3h-3v6.6h-2.4V124.5z
			 M198.9,132.6c1,0,1.8-0.3,2.4-0.8c0.6-0.5,0.8-1.3,0.8-2.2c0-1-0.3-1.7-0.9-2.2c-0.6-0.5-1.4-0.8-2.4-0.8h-3v6H198.9z"/>
		<path d="M215.3,141.6c-1.2,0-2.3-0.2-3.4-0.7c-1-0.5-1.9-1.1-2.7-1.9c-0.8-0.8-1.4-1.7-1.8-2.8c-0.4-1.1-0.7-2.2-0.7-3.4
			c0-1.2,0.2-2.4,0.7-3.4c0.4-1.1,1-2,1.8-2.8c0.8-0.8,1.7-1.4,2.7-1.9c1-0.5,2.2-0.7,3.4-0.7c1.2,0,2.3,0.2,3.4,0.7
			c1,0.5,1.9,1.1,2.7,1.9c0.8,0.8,1.4,1.7,1.8,2.8c0.4,1.1,0.7,2.2,0.7,3.4c0,1.2-0.2,2.4-0.7,3.4c-0.4,1.1-1,2-1.8,2.8
			c-0.8,0.8-1.7,1.4-2.7,1.9C217.6,141.4,216.5,141.6,215.3,141.6z M215.3,139.4c0.9,0,1.7-0.2,2.5-0.5c0.7-0.4,1.4-0.8,1.9-1.4
			c0.5-0.6,0.9-1.3,1.2-2.1c0.3-0.8,0.4-1.6,0.4-2.5c0-0.9-0.1-1.7-0.4-2.5c-0.3-0.8-0.7-1.5-1.2-2.1c-0.5-0.6-1.2-1.1-1.9-1.4
			c-0.7-0.3-1.6-0.5-2.5-0.5c-0.9,0-1.7,0.2-2.5,0.5c-0.7,0.3-1.4,0.8-1.9,1.4c-0.5,0.6-0.9,1.3-1.2,2.1c-0.3,0.8-0.4,1.6-0.4,2.5
			c0,0.9,0.1,1.7,0.4,2.5c0.3,0.8,0.7,1.5,1.2,2.1c0.5,0.6,1.2,1.1,1.9,1.4C213.5,139.2,214.3,139.4,215.3,139.4z"/>
		<path d="M227.1,124.5h2.4l9.1,13.1v-13.1h2.4v16.7h-2.4l-9.1-13.1v13.1h-2.4V124.5z"/>
		<path d="M245.6,137.1c0.2,0.3,0.5,0.5,0.8,0.8c0.3,0.3,0.6,0.5,1,0.7c0.4,0.2,0.8,0.4,1.2,0.5c0.5,0.1,0.9,0.2,1.5,0.2
			c1.1,0,2-0.3,2.6-0.8c0.6-0.5,0.9-1.2,0.9-2c0-0.9-0.4-1.6-1.1-2.1c-0.7-0.5-1.7-0.8-3-1.1c-0.7-0.2-1.4-0.4-2-0.6
			c-0.6-0.3-1.1-0.6-1.5-1c-0.4-0.4-0.8-0.9-1-1.4c-0.2-0.5-0.4-1.1-0.4-1.8c0-0.6,0.1-1.2,0.4-1.8c0.2-0.6,0.6-1,1.1-1.5
			c0.5-0.4,1.1-0.8,1.8-1c0.7-0.3,1.5-0.4,2.4-0.4c0.8,0,1.5,0.1,2.1,0.3c0.6,0.2,1.1,0.4,1.5,0.6c0.4,0.3,0.8,0.5,1,0.8
			c0.3,0.3,0.4,0.5,0.6,0.7l-1.6,1.5c-0.1-0.1-0.3-0.3-0.5-0.5c-0.2-0.2-0.5-0.4-0.8-0.6c-0.3-0.2-0.7-0.3-1.1-0.5
			c-0.4-0.1-0.9-0.2-1.4-0.2c-0.5,0-1,0.1-1.4,0.2c-0.4,0.1-0.7,0.3-1,0.6c-0.3,0.2-0.4,0.5-0.6,0.8c-0.1,0.3-0.2,0.6-0.2,0.9
			c0,0.4,0.1,0.8,0.3,1.1c0.2,0.3,0.4,0.6,0.8,0.8c0.3,0.2,0.7,0.4,1.2,0.6c0.5,0.2,1.1,0.3,1.7,0.5c0.6,0.2,1.2,0.3,1.8,0.6
			c0.6,0.2,1.1,0.6,1.6,1c0.5,0.4,0.8,0.9,1.1,1.5c0.3,0.6,0.4,1.3,0.4,2.2c0,0.7-0.2,1.4-0.5,2c-0.3,0.6-0.7,1.1-1.2,1.6
			c-0.5,0.4-1.1,0.8-1.9,1c-0.7,0.2-1.5,0.4-2.3,0.4c-0.8,0-1.5-0.1-2.1-0.3c-0.6-0.2-1.2-0.4-1.8-0.7c-0.5-0.3-1-0.6-1.4-0.9
			c-0.4-0.3-0.7-0.7-1-1L245.6,137.1z"/>
	</g>
</g>
</svg>
